<?xml version="1.0" encoding="utf-8"?>
<!-- Generator: Adobe Illustrator 21.1.0, SVG Export Plug-In . SVG Version: 6.00 Build 0)  -->
<svg version="1.1" id="Layer_1" xmlns="http://www.w3.org/2000/svg" xmlns:xlink="http://www.w3.org/1999/xlink" x="0px" y="0px"
	 viewBox="0 0 60 46" style="enable-background:new 0 0 60 46;" xml:space="preserve">
<style type="text/css">
	.st0{fill:none;stroke:#FFFFFF;stroke-width:2;stroke-linecap:round;stroke-linejoin:round;}
</style>
<title>47 -Email- ( shipping, transport, delivery, outline)</title>
<desc>Created with Sketch.</desc>
<g id="Page-1">
	<g id="Icons" transform="translate(-840.000000, -867.000000)">
		
			<g id="_x34_7--Email--_x28_-shipping_x2C_-transport_x2C_-delivery_x2C_-outline_x29_" transform="translate(841.000000, 868.000000)">
			<path id="Stroke-459" class="st0" d="M53.8,44H4.2C1.9,44,0,42.1,0,39.8V4.2C0,1.9,1.9,0,4.2,0h49.6C56.1,0,58,1.9,58,4.2v35.6
				C58,42.1,56.1,44,53.8,44L53.8,44z"/>
			<path id="Stroke-460" class="st0" d="M32.7,23.6l24-22.4C56,0.5,54.9,0,53.8,0H4.2C3.1,0,2,0.5,1.3,1.2l24.1,22.4
				C27.4,25.5,30.6,25.5,32.7,23.6L32.7,23.6z"/>
			<path id="Stroke-461" class="st0" d="M33.5,22.8l-0.8,0.7c-2.1,1.9-5.3,1.9-7.3,0l-0.8-0.7l-23.2,20C2.1,43.6,3.1,44,4.2,44h49.6
				c1.1,0,2.1-0.4,2.9-1.1L33.5,22.8L33.5,22.8z"/>
		</g>
	</g>
</g>
</svg>
