<?xml version="1.0" encoding="utf-8"?>
<!-- Generator: Adobe Illustrator 21.1.0, SVG Export Plug-In . SVG Version: 6.00 Build 0)  -->
<svg version="1.1" id="Layer_1" xmlns="http://www.w3.org/2000/svg" xmlns:xlink="http://www.w3.org/1999/xlink" x="0px" y="0px"
	 viewBox="0 0 60 60" style="enable-background:new 0 0 60 60;" xml:space="preserve">
<style type="text/css">
	.st0{fill:none;stroke:#FFF3F2;stroke-width:2;}
</style>
<title>1 -Facebook- (social, media, communication, outline)</title>
<desc>Created with Sketch.</desc>
<g id="Page-1">
	<g id="Icons" transform="translate(-120.000000, -376.000000)">
		
			<g id="_x31_--Facebook--_x28_social_x2C_-media_x2C_-communication_x2C_-outline_x29_" transform="translate(121.000000, 377.000000)">
			<path id="Stroke-1" class="st0" d="M49,10v10h-9c-1.1,0-2,0.9-2,2v6h10v10H38v20H28V38h-8V28h8v-6c0-6.3,4.8-11.5,11-12H49L49,10
				z"/>
			<path id="Stroke-3" class="st0" d="M54,58H4c-2.2,0-4-1.8-4-4V4c0-2.2,1.8-4,4-4h50c2.2,0,4,1.8,4,4v50C58,56.2,56.2,58,54,58
				L54,58z"/>
		</g>
	</g>
</g>
</svg>
