<?xml version="1.0" encoding="utf-8"?>
<!-- Generator: Adobe Illustrator 21.1.0, SVG Export Plug-In . SVG Version: 6.00 Build 0)  -->
<svg version="1.1" id="Layer_1" xmlns="http://www.w3.org/2000/svg" xmlns:xlink="http://www.w3.org/1999/xlink" x="0px" y="0px"
	 viewBox="0 0 60 60" style="enable-background:new 0 0 60 60;" xml:space="preserve">
<style type="text/css">
	.st0{fill:none;stroke:#FFFBFA;stroke-width:2;}
	.st1{fill:#FFEEEE;stroke:#FFFBFA;stroke-miterlimit:10;}
</style>
<title>3 -Instragram- (social, media, communication, outline)</title>
<desc>Created with Sketch.</desc>
<g id="Page-1">
	<g id="Icons" transform="translate(-360.000000, -376.000000)">
		
			<g id="_x33_--Instragram--_x28_social_x2C_-media_x2C_-communication_x2C_-outline_x29_" transform="translate(361.000000, 377.000000)">
			<path id="Stroke-5" class="st0" d="M41.9,58H16.1C7.2,58,0,50.8,0,41.9V16.1C0,7.2,7.2,0,16.1,0h25.8C50.8,0,58,7.2,58,16.1v25.8
				C58,50.8,50.8,58,41.9,58L41.9,58z"/>
			<path id="Stroke-7" class="st0" d="M16.1,52C10.5,52,6,47.5,6,41.9V16.1C6,10.5,10.5,6,16.1,6h25.8C47.5,6,52,10.5,52,16.1v25.8
				C52,47.5,47.5,52,41.9,52H16.1L16.1,52z"/>
			<path id="Stroke-221" class="st0" d="M29,44c-8.3,0-15-6.7-15-15s6.7-15,15-15s15,6.7,15,15S37.3,44,29,44L29,44z"/>
			<path id="Stroke-222" class="st0" d="M39,29c0-5.5-4.5-10-10-10s-10,4.5-10,10s4.5,10,10,10S39,34.5,39,29L39,29z"/>
			<path id="Fill-223" class="st1" d="M48,13c0-1.7-1.3-3-3-3s-3,1.3-3,3s1.3,3,3,3S48,14.7,48,13"/>
		</g>
	</g>
</g>
</svg>
