<?xml version="1.0" encoding="utf-8"?>
<!-- Generator: Adobe Illustrator 21.1.0, SVG Export Plug-In . SVG Version: 6.00 Build 0)  -->
<svg version="1.1" id="Layer_1" xmlns="http://www.w3.org/2000/svg" xmlns:xlink="http://www.w3.org/1999/xlink" x="0px" y="0px"
	 viewBox="0 0 54 54" style="enable-background:new 0 0 54 54;" xml:space="preserve">
<style type="text/css">
	.st0{fill:none;stroke:#FFFFFF;stroke-width:2;stroke-linecap:round;}
</style>
<title>30 - Phone (communication, dialogue, discussion, outline)</title>
<desc>Created with Sketch.</desc>
<g id="Page-1">
	<g id="Icons" transform="translate(-124.000000, -1198.000000)">
		<g id="Phone" transform="translate(124.000000, 1199.000000)">
			<path id="Stroke-2" class="st0" d="M52.5,40.4c-1.9-3.6-8.9-7.7-8.9-7.7c-1.6-0.9-3.5-1-4.4,0.6c0,0-2.3,2.7-2.9,3.1
				c-2.6,1.8-5.1,1.7-7.6-0.8L17.3,24.2c-2.5-2.5-2.5-4.9-0.8-7.6c0.4-0.6,3.1-2.9,3.1-2.9c1.6-0.9,1.5-2.8,0.6-4.4
				c0,0-4.1-7-7.7-8.9C11-0.3,9.2,0,7.9,1.2L5.4,3.8c-8,8-4.1,17.1,4,25.2l14.7,14.7c8,8,17.1,12,25.2,4l2.5-2.5
				C53,43.8,53.3,42,52.5,40.4L52.5,40.4z"/>
			<path id="Stroke-32" class="st0" d="M29,36c0,0,4.4,4.3,11,5"/>
			<path id="Stroke-34" class="st0" d="M18,25c0,0-5.3-4.4-6-11"/>
		</g>
	</g>
</g>
</svg>
